<svg xmlns="http://www.w3.org/2000/svg" xmlns:xlink="http://www.w3.org/1999/xlink" version="1.1" id="Layer_1" x="0px" y="0px" width="100px" height="100px" viewBox="5.0 -10.0 100.0 135.0" style="enable-background:new 0 0 100 100;" xml:space="preserve">
<path d="M70.016,60.395c-2.889-1.863-6.42-1.861-9.266-0.357l-16.556-10.69l15.988-9.537c2.79,1.596,6.319,1.727,9.274-0.033  c4.35-2.598,5.779-8.248,3.188-12.605c-2.6-4.354-8.254-5.777-12.604-3.189c-2.956,1.766-4.522,4.934-4.44,8.148l-15.316,9.131  c-0.116-0.084-0.209-0.188-0.332-0.266c-4.256-2.748-9.957-1.52-12.709,2.74c-2.746,4.258-1.518,9.959,2.742,12.708  c2.889,1.863,6.424,1.861,9.266,0.361l16.649,10.744c-0.194,3.209,1.259,6.432,4.146,8.295c4.263,2.746,9.962,1.521,12.71-2.738  C75.504,68.844,74.275,63.146,70.016,60.395z M63.188,29.267c1.441-0.859,3.314-0.385,4.173,1.051  c0.858,1.445,0.382,3.316-1.06,4.176c-1.436,0.855-3.305,0.387-4.167-1.055C61.277,32.001,61.75,30.126,63.188,29.267z   M37.523,50.369c-0.908,1.411-2.795,1.815-4.205,0.909c-1.408-0.911-1.816-2.797-0.908-4.208c0.912-1.412,2.799-1.814,4.211-0.908  C38.027,47.074,38.435,48.96,37.523,50.369z M67.59,69.771c-0.91,1.406-2.801,1.812-4.207,0.904  c-1.409-0.91-1.816-2.797-0.906-4.207c0.906-1.406,2.796-1.814,4.205-0.906C68.092,66.471,68.499,68.359,67.59,69.771z"/>
</svg>
